<svg width="2018" height="1483" viewBox="0 0 2018 1483" fill="none" xmlns="http://www.w3.org/2000/svg">
<g clip-path="url(#clip0_196_185)">
<g filter="url(#filter0_dd_196_185)">
<path d="M1516.46 741.5C1516.46 699.877 1499.93 659.958 1470.5 630.526C1441.53 601.554 1402.4 585.08 1361.49 584.572L1359.54 584.56C1308.86 584.56 1262.92 604.298 1214.83 641.529C1179.79 668.664 1146.46 702.767 1111.49 741.5C1146.46 780.233 1179.79 814.336 1214.83 841.471C1262.92 878.702 1308.86 898.44 1359.54 898.44L1361.49 898.428C1402.4 897.92 1441.53 881.446 1470.5 852.474C1499.93 823.042 1516.46 783.123 1516.46 741.5ZM501.554 743.449C502.061 784.368 518.533 823.502 547.502 852.474C576.93 881.906 616.844 898.44 658.462 898.44C709.138 898.44 755.081 878.702 803.166 841.471C838.211 814.336 871.54 780.233 906.506 741.5C871.54 702.767 838.211 668.664 803.166 641.529C755.081 604.298 709.138 584.56 658.462 584.56C616.844 584.56 576.93 601.094 547.502 630.526C518.074 659.958 501.541 699.877 501.541 741.5L501.554 743.449ZM1670 741.5C1670 823.85 1637.29 902.827 1579.07 961.057C1520.84 1019.29 1441.88 1052 1359.54 1052C1264.16 1052 1185.95 1013.31 1120.84 962.894C1080.68 931.8 1043.52 894.62 1009 857.049C974.476 894.62 937.318 931.8 897.16 962.894C832.05 1013.31 753.844 1052 658.462 1052C576.123 1052 497.155 1019.29 438.932 961.057C381.164 903.282 348.512 825.083 348.006 743.43L348 741.5C348 659.15 380.709 580.173 438.932 521.943C497.155 463.713 576.123 431 658.462 431C753.844 431 832.05 469.692 897.16 520.106C937.318 551.2 974.476 588.379 1009 625.95C1043.52 588.379 1080.68 551.2 1120.84 520.106C1185.95 469.692 1264.16 431 1359.54 431C1441.88 431 1520.84 463.713 1579.07 521.943C1637.29 580.173 1670 659.15 1670 741.5Z" fill="url(#paint0_linear_196_185)"/>
<path d="M1516.46 741.5C1516.46 699.877 1499.93 659.958 1470.5 630.526C1441.53 601.554 1402.4 585.08 1361.49 584.572L1359.54 584.56C1308.86 584.56 1262.92 604.298 1214.83 641.529C1179.79 668.664 1146.46 702.767 1111.49 741.5C1146.46 780.233 1179.79 814.336 1214.83 841.471C1262.92 878.702 1308.86 898.44 1359.54 898.44L1361.49 898.428C1402.4 897.92 1441.53 881.446 1470.5 852.474C1499.93 823.042 1516.46 783.123 1516.46 741.5ZM501.554 743.449C502.061 784.368 518.533 823.502 547.502 852.474C576.93 881.906 616.844 898.44 658.462 898.44C709.138 898.44 755.081 878.702 803.166 841.471C838.211 814.336 871.54 780.233 906.506 741.5C871.54 702.767 838.211 668.664 803.166 641.529C755.081 604.298 709.138 584.56 658.462 584.56C616.844 584.56 576.93 601.094 547.502 630.526C518.074 659.958 501.541 699.877 501.541 741.5L501.554 743.449ZM1670 741.5C1670 823.85 1637.29 902.827 1579.07 961.057C1520.84 1019.29 1441.88 1052 1359.54 1052C1264.16 1052 1185.95 1013.31 1120.84 962.894C1080.68 931.8 1043.52 894.62 1009 857.049C974.476 894.62 937.318 931.8 897.16 962.894C832.05 1013.31 753.844 1052 658.462 1052C576.123 1052 497.155 1019.29 438.932 961.057C381.164 903.282 348.512 825.083 348.006 743.43L348 741.5C348 659.15 380.709 580.173 438.932 521.943C497.155 463.713 576.123 431 658.462 431C753.844 431 832.05 469.692 897.16 520.106C937.318 551.2 974.476 588.379 1009 625.95C1043.52 588.379 1080.68 551.2 1120.84 520.106C1185.95 469.692 1264.16 431 1359.54 431C1441.88 431 1520.84 463.713 1579.07 521.943C1637.29 580.173 1670 659.15 1670 741.5Z" stroke="#434C5E" stroke-width="17" stroke-linecap="round" stroke-linejoin="round"/>
</g>
</g>
<defs>
<filter id="filter0_dd_196_185" x="-53.9508" y="77.6421" width="2110.12" height="1309.34" filterUnits="userSpaceOnUse" color-interpolation-filters="sRGB">
<feFlood flood-opacity="0" result="BackgroundImageFix"/>
<feColorMatrix in="SourceAlpha" type="matrix" values="0 0 0 0 0 0 0 0 0 0 0 0 0 0 0 0 0 0 127 0" result="hardAlpha"/>
<feOffset dx="127.673" dy="76.4775"/>
<feGaussianBlur stdDeviation="125"/>
<feColorMatrix type="matrix" values="0 0 0 0 0.0903821 0 0 0 0 0.115677 0 0 0 0 0.166266 0 0 0 1 0"/>
<feBlend mode="normal" in2="BackgroundImageFix" result="effect1_dropShadow_196_185"/>
<feColorMatrix in="SourceAlpha" type="matrix" values="0 0 0 0 0 0 0 0 0 0 0 0 0 0 0 0 0 0 127 0" result="hardAlpha"/>
<feOffset dx="-74.5174" dy="-25.9246"/>
<feGaussianBlur stdDeviation="159.467"/>
<feColorMatrix type="matrix" values="0 0 0 0 0.145968 0 0 0 0 0.169912 0 0 0 0 0.217802 0 0 0 1 0"/>
<feBlend mode="normal" in2="effect1_dropShadow_196_185" result="effect2_dropShadow_196_185"/>
<feBlend mode="normal" in="SourceGraphic" in2="effect2_dropShadow_196_185" result="shape"/>
</filter>
<linearGradient id="paint0_linear_196_185" x1="297.5" y1="338" x2="1920" y2="1872.5" gradientUnits="userSpaceOnUse">
<stop stop-color="#434C5E"/>
<stop offset="1" stop-color="#3B4252"/>
</linearGradient>
<clipPath id="clip0_196_185">
<rect width="2018" height="1483" fill="white"/>
</clipPath>
</defs>
</svg>
