<?xml version="1.0" encoding="UTF-8" standalone="no"?>
<svg id="圖層_1" data-name="圖層 1" viewBox="0 0 150 107.05877" version="1.1" sodipodi:docname="nchc_logo.svg" width="150" height="107.05877" inkscape:version="1.4.2 (f4327f4, 2025-05-13)" xmlns:inkscape="http://www.inkscape.org/namespaces/inkscape" xmlns:sodipodi="http://sodipodi.sourceforge.net/DTD/sodipodi-0.dtd" xmlns="http://www.w3.org/2000/svg" xmlns:svg="http://www.w3.org/2000/svg">
  <sodipodi:namedview id="namedview126" pagecolor="#ffffff" bordercolor="#000000" borderopacity="0.25" inkscape:showpageshadow="2" inkscape:pageopacity="0.0" inkscape:pagecheckerboard="0" inkscape:deskcolor="#d1d1d1" showgrid="false" inkscape:zoom="1.523354" inkscape:cx="258.96805" inkscape:cy="189.05652" inkscape:window-width="1440" inkscape:window-height="830" inkscape:window-x="-6" inkscape:window-y="-6" inkscape:window-maximized="1" inkscape:current-layer="圖層_1"/>
  <defs id="defs1">
    <style id="style1">.cls-1{fill:#b79668;}.cls-2{fill:#ca1e22;}.cls-3{fill:#211d1e;}.cls-4{fill:#c53428;}</style>
  </defs>
  <path class="cls-4" d="m 85.300002,12.904853 a 3.93,3.93 0 0 0 3.83,-3.9999999 4,4 0 0 0 -3.83,-4 3.94,3.94 0 0 0 -3.75,4 3.87,3.87 0 0 0 3.75,3.9999999 z" id="path44"/>
  <path class="cls-3" d="m 105.06228,49.02149 -1.79276,-5.496663 H 88.048002 l -6.62981,26.874435 h 19.737228 l -2.012618,-5.987129 -9.84325,0.135302 3.72082,-15.458294 z M 74.805292,70.399262 81.316712,43.72778 h -7.17102 l -2.7737,11.703659 h -7.560019 l 2.841349,-11.720572 h -7.052635 l -6.866594,26.688395 h 7.171024 l 2.266315,-9.826334 h 7.96593 l -1.79276,9.826334 z m 62.340558,-60.4125089 2.89209,-2.01262 C 108.64779,-12.473437 43.770312,9.5131931 23.931604,38.789244 h 10.35063 C 58.856524,11.999383 103.97986,-8.9724869 137.14585,9.9867531 Z m 12.65077,13.8515799 -3.24726,0.50738 C 151.84307,79.312304 48.319853,121.30677 20.633609,80.546938 L 101.69663,79.785862 V 74.559809 L 7.289414,74.830414 C 8.202705,139.74172 156.22348,98.339198 149.79662,23.838333 Z M 15.593596,70.399262 20.329179,70.263959 28.176715,43.592478 h -6.59599 L 17.995213,55.685131 14.494265,43.524827 H 7.864449 L 0,70.399262 6.765118,70.263959 10.621235,56.733724 Z M 50.636906,49.089141 48.84415,43.592478 h -15.0693 l -6.731292,26.806784 h 19.737231 l -1.978797,-5.987129 -9.860159,0.135302 3.75464,-15.458294 z" id="path45" style="stroke-width:1.69128"/>
</svg>