<svg width="1417" height="1124" viewBox="0 0 1417 1124" fill="none" xmlns="http://www.w3.org/2000/svg">
<g filter="url(#filter0_dd_4_24)">
<path d="M1561.91 486.5C1561.91 444.877 1545.38 404.958 1515.95 375.526C1486.98 346.554 1447.85 330.08 1406.94 329.572L1404.99 329.56C1354.31 329.56 1308.37 349.298 1260.29 386.529C1225.24 413.664 1191.91 447.767 1156.94 486.5C1191.91 525.233 1225.24 559.336 1260.29 586.471C1308.37 623.702 1354.31 643.44 1404.99 643.44L1406.94 643.428C1447.85 642.92 1486.98 626.446 1515.95 597.474C1545.38 568.042 1561.91 528.123 1561.91 486.5ZM547.004 488.449C547.512 529.368 563.984 568.502 592.953 597.474C622.381 626.906 662.295 643.44 703.913 643.44C754.589 643.44 800.532 623.702 848.616 586.471C883.662 559.336 916.991 525.233 951.957 486.5C916.991 447.767 883.662 413.664 848.616 386.529C800.532 349.298 754.589 329.56 703.913 329.56C662.295 329.56 622.381 346.094 592.953 375.526C563.524 404.958 546.992 444.877 546.992 486.5L547.004 488.449ZM1715.45 486.5C1715.45 568.85 1682.74 647.827 1624.52 706.057C1566.3 764.287 1487.33 797 1404.99 797C1309.61 797 1231.4 758.308 1166.29 707.894C1126.13 676.8 1088.97 639.62 1054.45 602.049C1019.93 639.62 982.769 676.8 942.611 707.894C877.501 758.308 799.294 797 703.913 797C621.573 797 542.606 764.287 484.383 706.057C426.615 648.282 393.963 570.083 393.456 488.43L393.451 486.5C393.451 404.15 426.16 325.173 484.383 266.943C542.606 208.713 621.573 176 703.913 176C799.294 176 877.501 214.692 942.611 265.106C982.769 296.2 1019.93 333.379 1054.45 370.95C1088.97 333.379 1126.13 296.2 1166.29 265.106C1231.4 214.692 1309.61 176 1404.99 176C1487.33 176 1566.3 208.713 1624.52 266.943C1682.74 325.173 1715.45 404.15 1715.45 486.5Z" fill="url(#paint0_linear_4_24)"/>
</g>
<defs>
<filter id="filter0_dd_4_24" x="-1.52588e-05" y="-168.858" width="2093.12" height="1292.34" filterUnits="userSpaceOnUse" color-interpolation-filters="sRGB">
<feFlood flood-opacity="0" result="BackgroundImageFix"/>
<feColorMatrix in="SourceAlpha" type="matrix" values="0 0 0 0 0 0 0 0 0 0 0 0 0 0 0 0 0 0 127 0" result="hardAlpha"/>
<feOffset dx="127.673" dy="76.4775"/>
<feGaussianBlur stdDeviation="125"/>
<feColorMatrix type="matrix" values="0 0 0 0 0.534167 0 0 0 0 0.645967 0 0 0 0 0.749167 0 0 0 1 0"/>
<feBlend mode="normal" in2="BackgroundImageFix" result="effect1_dropShadow_4_24"/>
<feColorMatrix in="SourceAlpha" type="matrix" values="0 0 0 0 0 0 0 0 0 0 0 0 0 0 0 0 0 0 127 0" result="hardAlpha"/>
<feOffset dx="-74.5174" dy="-25.9246"/>
<feGaussianBlur stdDeviation="159.467"/>
<feColorMatrix type="matrix" values="0 0 0 0 1 0 0 0 0 1 0 0 0 0 1 0 0 0 1 0"/>
<feBlend mode="normal" in2="effect1_dropShadow_4_24" result="effect2_dropShadow_4_24"/>
<feBlend mode="normal" in="SourceGraphic" in2="effect2_dropShadow_4_24" result="shape"/>
</filter>
<linearGradient id="paint0_linear_4_24" x1="342.951" y1="83" x2="1965.45" y2="1617.5" gradientUnits="userSpaceOnUse">
<stop stop-color="#ECEFF4"/>
<stop offset="1" stop-color="#E5E9F0"/>
</linearGradient>
</defs>
</svg>
